<svg height="464pt" viewBox="0 0 464 464" width="464pt" xmlns="http://www.w3.org/2000/svg"><path d="m352 24h48v104h-48zm0 0" fill="#acabb1"/><path d="m416 154.160156v245.839844h-360v-250.480469l176-101.519531zm0 0" fill="#e0e0e2"/><path d="m416 0v24h-80v-24zm0 0" fill="#57565c"/><path d="m352 24h48v8h-48zm0 0" fill="#898890"/><path d="m464 240v192h-24v-168h-304v-24zm0 0" fill="#009698"/><path d="m136 240h328v192h-328zm0 0" fill="#007579"/><path d="m440 432v24h-24v-168h-296v-24h320zm0 0" fill="#009698"/><path d="m120 264h320v192h-320zm0 0" fill="#009698"/><path d="m464 128-24 40-208-120-208 120-24-40 232-128zm0 0" fill="#ff7956"/><path d="m56 149.519531v8.015625l176-101.535156 184 106.152344v-7.992188l-184-106.160156zm0 0" fill="#acabb1"/><path d="m112 424v16h-80v-40h80zm0 0" fill="#787680"/><path d="m192 152h40v40h-40zm0 0" fill="#bdfdff"/><path d="m232 152h40v40h-40zm0 0" fill="#46f8ff"/><path d="m232 112h40v40h-40zm0 0" fill="#bdfdff"/><path d="m192 112h40v40h-40zm0 0" fill="#46f8ff"/><path d="m112 288h304v176h-304zm0 0" fill="#91dc5a"/><g fill="#5eac24"><path d="m152 464h-40v-40c22.089844 0 40 17.910156 40 40zm0 0"/><path d="m120 288h32c0 22.089844-17.910156 40-40 40v-40zm0 0"/><path d="m416 456v8h-40c0-22.089844 17.910156-40 40-40zm0 0"/><path d="m416 288v40c-22.089844 0-40-17.910156-40-40zm0 0"/></g><path d="m328 376c0 35.347656-28.652344 64-64 64s-64-28.652344-64-64 28.652344-64 64-64 64 28.652344 64 64zm0 0" fill="#ffda44"/><path d="m272 368v-16c4.417969 0 8 3.582031 8 8h16c0-13.253906-10.746094-24-24-24v-8h-16v8c-13.253906 0-24 10.746094-24 24s10.746094 24 24 24v16c-4.417969 0-8-3.582031-8-8h-16c0 13.253906 10.746094 24 24 24v8h16v-8c13.253906 0 24-10.746094 24-24s-10.746094-24-24-24zm-24-8c0-4.417969 3.582031-8 8-8v16c-4.417969 0-8-3.582031-8-8zm24 40v-16c4.417969 0 8 3.582031 8 8s-3.582031 8-8 8zm0 0" fill="#fff"/></svg>