<svg height="512" viewBox="0 0 60 60" width="512" xmlns="http://www.w3.org/2000/svg"><g id="015---Building-Houses" fill="none"><g id="Layer_3" transform="translate(1)"><path id="Shape" d="m51 34.07v21.93c0 1.6568542-1.3431458 3-3 3h-23v-21c0-.5522847-.4477153-1-1-1h-8c-.5522847 0-1 .4477153-1 1v21h-5c-1.65685425 0-3-1.3431458-3-3v-21.93l21.45-14.3c.3337325-.2197805.7662675-.2197805 1.1 0z" fill="#f44335"/><path id="Shape" d="m29.55 19.77c-.3337325-.2197805-.7662675-.2197805-1.1 0l-.95.633 20.5 13.667v21.93c0 1.6568542-1.3431458 3-3 3h3c1.6568542 0 3-1.3431458 3-3v-21.93z" fill="#c81e1e"/><path id="Shape" d="m57.87 11.5c-1.3004904 2.2551846-3.7450518 3.602386-6.3462274 3.4974153-2.6011756-.1049708-4.9292316-1.6447718-6.0437726-3.9974153h-32.96c-1.114541 2.3526435-3.44259702 3.8924445-6.04377259 3.9974153-2.60117556.1049707-5.04573696-1.2422307-6.34622741-3.4974153-.17524562-.3121226-.17162788-.6938137.00950243-1.0025586.18113032-.3087448.51254352-.49812922.87049757-.4974414h4.99c.26511207-.00197429.51931642-.10580423.71-.29l1-1c.38997787-.39300794.38997787-1.02699206 0-1.42l-1-1c-.19068358-.18419577-.44488793-.28802571-.71-.29h-4.99c-.35795405.00068782-.68936725-.18869658-.87049757-.49744143-.18113031-.30874485-.18474805-.69043592-.00950243-1.00255857 1.30049045-2.25518464 3.74505185-3.60238602 6.34622741-3.49741526 2.60117557.10497077 4.92923159 1.64477172 6.04377259 3.99741526h32.96c1.114541-2.35264354 3.442597-3.89244449 6.0437726-3.99741526 2.6011756-.10497076 5.045737 1.24223062 6.3462274 3.49741526.1752456.31212265.1716279.69381372-.0095024 1.00255857s-.5125436.49812925-.8704976.49744143h-4.99c-.2651121.00197429-.5193164.10580423-.71.29l-1 1c-.3899779.39300794-.3899779 1.02699206 0 1.42l1 1c.1906836.18419577.4448879.28802571.71.29h4.99c.357954-.00068782.6893673.1886966.8704976.4974414.1811303.3087449.184748.690436.0095024 1.0025586z" fill="#607d8b"/><path id="Shape" d="m54.87 4.5c.1752456.31212265.1716279.69381372-.0095024 1.00255857s-.5125436.49812925-.8704976.49744143h3c.357954.00068782.6893673-.18869658.8704976-.49744143s.184748-.69043592.0095024-1.00255857c-1.5081835-2.65946111-4.5851226-4.01121526-7.564-3.323 1.9203563.41786834 3.5765971 1.62375971 4.564 3.323z" fill="#37474f"/><path id="Shape" d="m56.99 10h-3c.357954-.00068782.6893673.1886966.8704976.4974414.1811303.3087449.184748.690436.0095024 1.0025586-.9878719 1.6988172-2.6439024 2.9045554-4.564 3.323 2.9788774.6882153 6.0558165-.6635389 7.564-3.323.1752456-.3121226.1716279-.6938137-.0095024-1.0025586-.1811303-.3087448-.5125436-.49812922-.8704976-.4974414z" fill="#37474f"/><path id="Shape" d="m57.78 35.91c-.2587241.5090212-.7233495.882623-1.2760411 1.0260551s-1.1403578.0429163-1.6139589-.2760551l-3.89-2.59-21.45-14.3c-.3337325-.2197805-.7662675-.2197805-1.1 0l-21.45 14.3-3.8 2.53c-.82469488.5801182-1.94712183.4830663-2.66-.23-.40133738-.4288899-.59384765-1.0125225-.52644635-1.5960252.0674013-.5835026.38789914-1.1078768.87644635-1.4339748l27-18c.671581-.4500226 1.548419-.4500226 2.22 0l26.91 17.94c.8819167.5583703 1.2081411 1.6872784.76 2.63z" fill="#a0522d"/><path id="Shape" d="m25 38v21h-10v-21c0-.5522847.4477153-1 1-1h8c.5522847 0 1 .4477153 1 1z" fill="#ff9801"/><path id="Shape" d="m24 37h-3c.5522847 0 1 .4477153 1 1v21h3v-21c0-.5522847-.4477153-1-1-1z" fill="#f57c00"/><rect id="Rectangle-path" fill="#00bcd4" height="12" rx="1" width="12" x="31" y="37"/><path id="Shape" d="m42 37h-3c.5522847 0 1 .4477153 1 1v10c0 .5522847-.4477153 1-1 1h3c.5522847 0 1-.4477153 1-1v-10c0-.5522847-.4477153-1-1-1z" fill="#00838f"/></g><g id="Layer_12" fill="#000" transform="translate(-1)"><path id="Shape" d="m54 56v-20.061l2.335 1.561c.7127763.4757914 1.5950062.6240369 2.4241446.4073412.8291384-.2166958 1.5260203-.777643 1.9148554-1.5413412.6824016-1.3951431.2090555-3.080255-1.1-3.916l-26.91-17.95c-1.006997-.6738698-2.321003-.6738698-3.328 0l-27 18c-.73454748.4893509-1.21633344 1.2773381-1.31710114 2.1541905-.10076771.8768525.18970868 1.7535878.79410114 2.3968095 1.04774857 1.0642112 2.70732796 1.2251146 3.94.382l2.247-1.494v20.061c0 2.209139 1.790861 4 4 4h38c2.209139 0 4-1.790861 4-4zm-49.356-20.228c-.28581247.2143594-.66427344.2599564-.99282032.1196152-.32854689-.1403411-.55726559-.4452994-.6-.8-.04273441-.3547005.10700785-.7052558.39282032-.9196152l27-18c.3360369-.2241995.7739631-.2241995 1.11 0l26.914 17.938c.4549975.2779634.636869.8478557.427 1.338-.1350072.2499361-.3673306.4329423-.641933.5056646-.2746023.0727223-.5670517.0286904-.808067-.1216646l-25.336-16.891c-.6716151-.4475101-1.5463849-.4475101-2.218 0zm5.356 20.228v-21.4l21-14 21 14v21.4c0 1.1045695-.8954305 2-2 2h-22v-20c0-1.1045695-.8954305-2-2-2h-8c-1.1045695 0-2 .8954305-2 2v20h-4c-1.1045695 0-2-.8954305-2-2zm8 2v-20h8v20z"/><path id="Shape" d="m58.988 9h-4.988l-1-1 1-1h4.989c.7152835.00092311 1.376944-.37909476 1.7365858-.9973901s.3628477-1.38131428.0084142-2.0026099c-1.4306165-2.47428439-4.071898-3.9981153-6.93-3.9981153s-5.4993835 1.52383091-6.93 3.9981153h-31.747c-1.431893-2.47541798-4.0752981-3.99925375-6.93501999-3.99781007-2.85972194.00144368-5.50158712 1.52794762-6.93098001 4.00481007-.35132113.621621-.34573273 1.38313281.01467369 1.99953075.36040641.61639795 1.02129721.994756 1.73532631.99346925h4.989l1 1-1 1h-4.989c-.71528351-.00092311-1.376944.37909476-1.73658579.9973901-.35964179.6182953-.3628477 1.3813143-.00841421 2.0026099 1.43089035 2.474237 4.07230199 3.9979823 6.9305 3.9979823 2.858198 0 5.4996096-1.5237453 6.9305-3.9979823h31.746c1.4311642 2.4741896 4.0727059 3.9978495 6.931 3.9978495s5.4998358-1.5236599 6.931-3.9978495c.355277-.6215264.3522075-1.3853275-.0080535-2.00397833-.360261-.61865079-1.0230473-.99827691-1.7389465-.99602167zm.012 2c-1.1149272 1.9319852-3.2095957 3.0859908-5.4383977 2.9961502-2.2288019-.0898406-4.2237921-1.4086959-5.1796023-3.4241502-.1645398-.3484527-.5146561-.57136-.9-.573h-32.961c-.3853439.00164-.7354602.2245473-.9.573-.9537692 2.0154276-2.9475847 3.3347276-5.17548665 3.4245996-2.22790192.089872-4.32150543-1.0645444-5.43451335-2.9965996h4.989c1.042 0 1.516-.682 2.417-1.583.7814521-.78305744.7814521-2.05094256 0-2.834l-1.017-1.019c-.37666306-.36121214-.87812963-.56323153-1.4-.564h-5c1.11443025-1.93314621 3.20957868-3.08817363 5.43914655-2.99852905 2.22956785.08964459 4.22522235 1.40915156 5.18085345 3.42552905.1645398.34845265.5146561.57136.9.573h32.959c.3853439-.00164.7354602-.22454735.9-.573.9536479-2.01538722 2.9474483-3.33460729 5.17527-3.42427454 2.2278218-.08966726 4.3211953 1.06504878 5.43373 2.99727454h-4.988c-1.042 0-1.514.678-2.419 1.583-.7798053.78373788-.7798053 2.05026212 0 2.834l1.02 1.02c.3767976.3602562.8776943.5618322 1.399.563z"/><path id="Shape" d="m34 50h10c1.1045695 0 2-.8954305 2-2v-10c0-1.1045695-.8954305-2-2-2h-10c-1.1045695 0-2 .8954305-2 2v10c0 1.1045695.8954305 2 2 2zm0-6h4v4h-4zm6 4v-4h4v4zm4-6h-4v-4h4zm-6-4v4h-4v-4z"/></g></g></svg>