<svg xmlns="http://www.w3.org/2000/svg" height="512pt" version="1.1" viewBox="-2 0 512 512" width="512pt">
<g id="surface1">
<path d="M 154.167969 308.914062 L 108.753906 308.914062 C 104.601562 308.914062 101.234375 305.546875 101.234375 301.394531 L 101.234375 241.957031 C 101.234375 237.804688 104.601562 234.4375 108.753906 234.4375 L 154.167969 234.4375 C 158.320312 234.4375 161.6875 237.804688 161.6875 241.957031 L 161.6875 301.394531 C 161.683594 305.546875 158.320312 308.914062 154.167969 308.914062 Z M 116.273438 293.878906 L 146.648438 293.878906 L 146.648438 249.476562 L 116.273438 249.476562 Z M 116.273438 293.878906 " style=" stroke:none;fill-rule:nonzero;fill:rgb(9.019608%,49.019608%,45.490196%);fill-opacity:1;" />
<path d="M 99.652344 488.972656 C 99.652344 501.691406 89.34375 512 76.625 512 C 63.90625 512 53.597656 501.691406 53.597656 488.972656 C 53.597656 476.253906 63.90625 465.945312 76.625 465.945312 C 89.34375 465.945312 99.652344 476.253906 99.652344 488.972656 Z M 99.652344 488.972656 " style=" stroke:none;fill-rule:nonzero;fill:rgb(33.333333%,52.941176%,60.784314%);fill-opacity:1;" />
<path d="M 224.445312 488.972656 C 224.445312 501.691406 214.136719 512 201.417969 512 C 188.699219 512 178.390625 501.691406 178.390625 488.972656 C 178.390625 476.253906 188.699219 465.945312 201.417969 465.945312 C 214.136719 465.945312 224.445312 476.253906 224.445312 488.972656 Z M 224.445312 488.972656 " style=" stroke:none;fill-rule:nonzero;fill:rgb(33.333333%,52.941176%,60.784314%);fill-opacity:1;" />
<path d="M 228.601562 185.066406 L 19.878906 185.066406 C 8.898438 185.066406 0 176.167969 0 165.1875 L 0 29.925781 C 0 18.945312 8.898438 10.046875 19.878906 10.046875 L 228.601562 10.046875 C 239.578125 10.046875 248.476562 18.945312 248.476562 29.925781 L 248.476562 165.1875 C 248.476562 176.167969 239.578125 185.066406 228.601562 185.066406 Z M 228.601562 185.066406 " style=" stroke:none;fill-rule:nonzero;fill:rgb(64.705882%,78.431373%,80.392157%);fill-opacity:1;" />
<path d="M 65.089844 141.425781 L 52.671875 141.425781 L 52.671875 158.332031 C 52.671875 160.328125 50.238281 161.328125 47.804688 161.328125 C 45.371094 161.328125 42.9375 160.328125 42.9375 158.332031 L 42.9375 118.652344 C 42.9375 116.59375 45.371094 115.71875 47.804688 115.71875 C 50.238281 115.71875 52.671875 116.59375 52.671875 118.652344 L 52.671875 133.9375 L 65.089844 133.9375 L 65.089844 118.652344 C 65.089844 116.59375 67.523438 115.71875 69.957031 115.71875 C 72.390625 115.71875 74.824219 116.59375 74.824219 118.652344 L 74.824219 158.332031 C 74.824219 160.328125 72.390625 161.328125 69.957031 161.328125 C 67.523438 161.328125 65.089844 160.328125 65.089844 158.332031 Z M 65.089844 141.425781 " style=" stroke:none;fill-rule:nonzero;fill:rgb(100%,100%,100%);fill-opacity:1;" />
<path d="M 81.0625 146.976562 L 81.0625 130.441406 C 81.0625 119.710938 87.738281 115.71875 96.351562 115.71875 C 104.960938 115.71875 111.699219 119.710938 111.699219 130.441406 L 111.699219 146.976562 C 111.699219 157.710938 104.960938 161.703125 96.351562 161.703125 C 87.738281 161.703125 81.0625 157.710938 81.0625 146.976562 Z M 101.964844 130.441406 C 101.964844 126.136719 99.84375 124.203125 96.347656 124.203125 C 92.855469 124.203125 90.796875 126.136719 90.796875 130.441406 L 90.796875 146.976562 C 90.796875 151.28125 92.855469 153.214844 96.347656 153.214844 C 99.84375 153.214844 101.964844 151.28125 101.964844 146.976562 Z M 101.964844 130.441406 " style=" stroke:none;fill-rule:nonzero;fill:rgb(100%,100%,100%);fill-opacity:1;" />
<path d="M 144.269531 115.71875 C 146.328125 115.71875 147.203125 117.964844 147.203125 120.023438 C 147.203125 122.394531 146.144531 124.453125 144.269531 124.453125 L 135.660156 124.453125 L 135.660156 158.332031 C 135.660156 160.328125 133.226562 161.328125 130.792969 161.328125 C 128.359375 161.328125 125.925781 160.328125 125.925781 158.332031 L 125.925781 124.453125 L 117.316406 124.453125 C 115.445312 124.453125 114.382812 122.394531 114.382812 120.023438 C 114.382812 117.964844 115.257812 115.71875 117.316406 115.71875 Z M 144.269531 115.71875 " style=" stroke:none;fill-rule:nonzero;fill:rgb(100%,100%,100%);fill-opacity:1;" />
<path d="M 160.808594 134.746094 L 170.164062 134.746094 C 172.039062 134.746094 173.097656 136.558594 173.097656 138.554688 C 173.097656 140.238281 172.226562 142.234375 170.164062 142.234375 L 160.808594 142.234375 L 160.808594 152.84375 L 177.527344 152.84375 C 179.398438 152.84375 180.460938 154.839844 180.460938 157.148438 C 180.460938 159.144531 179.585938 161.328125 177.527344 161.328125 L 155.316406 161.328125 C 153.195312 161.328125 151.074219 160.328125 151.074219 158.332031 L 151.074219 118.710938 C 151.074219 116.714844 153.195312 115.71875 155.316406 115.71875 L 177.527344 115.71875 C 179.585938 115.71875 180.460938 117.902344 180.460938 119.898438 C 180.460938 122.207031 179.398438 124.203125 177.527344 124.203125 L 160.808594 124.203125 Z M 160.808594 134.746094 " style=" stroke:none;fill-rule:nonzero;fill:rgb(100%,100%,100%);fill-opacity:1;" />
<path d="M 188.945312 161.328125 C 186.824219 161.328125 184.703125 160.328125 184.703125 158.332031 L 184.703125 118.652344 C 184.703125 116.59375 187.136719 115.71875 189.570312 115.71875 C 192.003906 115.71875 194.4375 116.59375 194.4375 118.652344 L 194.4375 152.84375 L 208.664062 152.84375 C 210.535156 152.84375 211.472656 154.964844 211.472656 157.085938 C 211.472656 159.207031 210.535156 161.328125 208.664062 161.328125 Z M 188.945312 161.328125 " style=" stroke:none;fill-rule:nonzero;fill:rgb(100%,100%,100%);fill-opacity:1;" />
<path d="M 72.492188 72.496094 L 76.691406 84.878906 L 89.765625 85.046875 L 79.285156 92.863281 L 83.164062 105.351562 L 72.492188 97.800781 L 61.816406 105.351562 L 65.699219 92.863281 L 55.21875 85.046875 L 68.292969 84.878906 Z M 72.492188 72.496094 " style=" stroke:none;fill-rule:nonzero;fill:rgb(100%,90.196078%,47.058824%);fill-opacity:1;" />
<path d="M 119.015625 72.496094 L 123.214844 84.878906 L 136.285156 85.046875 L 125.808594 92.863281 L 129.6875 105.351562 L 119.015625 97.800781 L 108.339844 105.351562 L 112.222656 92.863281 L 101.742188 85.046875 L 114.816406 84.878906 Z M 119.015625 72.496094 " style=" stroke:none;fill-rule:nonzero;fill:rgb(100%,90.196078%,47.058824%);fill-opacity:1;" />
<path d="M 165.535156 72.496094 L 169.734375 84.878906 L 182.808594 85.046875 L 172.332031 92.863281 L 176.210938 105.351562 L 165.535156 97.800781 L 154.863281 105.351562 L 158.742188 92.863281 L 148.265625 85.046875 L 161.339844 84.878906 Z M 165.535156 72.496094 " style=" stroke:none;fill-rule:nonzero;fill:rgb(100%,90.196078%,47.058824%);fill-opacity:1;" />
<path d="M 95.753906 25.832031 L 99.949219 38.214844 L 113.023438 38.378906 L 102.546875 46.199219 L 106.429688 58.683594 L 95.753906 51.136719 L 85.078125 58.683594 L 88.960938 46.199219 L 78.480469 38.378906 L 91.554688 38.214844 Z M 95.753906 25.832031 " style=" stroke:none;fill-rule:nonzero;fill:rgb(100%,90.196078%,47.058824%);fill-opacity:1;" />
<path d="M 142.277344 25.832031 L 146.472656 38.214844 L 159.546875 38.378906 L 149.070312 46.199219 L 152.949219 58.683594 L 142.277344 51.136719 L 131.601562 58.683594 L 135.480469 46.199219 L 125.003906 38.378906 L 138.078125 38.214844 Z M 142.277344 25.832031 " style=" stroke:none;fill-rule:nonzero;fill:rgb(100%,90.196078%,47.058824%);fill-opacity:1;" />
<path d="M 248.476562 489.332031 L 25.398438 489.332031 C 16.25 489.332031 8.835938 481.914062 8.835938 472.769531 C 8.835938 463.621094 16.25 456.203125 25.398438 456.203125 L 231.910156 456.203125 L 231.910156 241.957031 C 231.910156 232.808594 239.328125 225.394531 248.476562 225.394531 C 257.625 225.394531 265.042969 232.808594 265.042969 241.957031 L 265.042969 472.765625 C 265.042969 481.914062 257.628906 489.332031 248.476562 489.332031 Z M 248.476562 489.332031 " style=" stroke:none;fill-rule:nonzero;fill:rgb(52.941176%,68.627451%,72.54902%);fill-opacity:1;" />
<path d="M 182.851562 456.203125 L 53.644531 456.203125 C 44.335938 456.203125 36.789062 448.65625 36.789062 439.347656 L 36.789062 409.003906 C 36.789062 399.695312 44.335938 392.148438 53.644531 392.148438 L 182.851562 392.148438 C 192.160156 392.148438 199.710938 399.695312 199.710938 409.003906 L 199.710938 439.347656 C 199.707031 448.65625 192.160156 456.203125 182.851562 456.203125 Z M 182.851562 456.203125 " style=" stroke:none;fill-rule:nonzero;fill:rgb(98.039216%,31.372549%,23.529412%);fill-opacity:1;" />
<path d="M 143.558594 431.695312 L 92.9375 431.695312 C 88.785156 431.695312 85.417969 428.328125 85.417969 424.175781 C 85.417969 420.023438 88.785156 416.65625 92.9375 416.65625 L 143.558594 416.65625 C 147.710938 416.65625 151.078125 420.023438 151.078125 424.175781 C 151.078125 428.328125 147.710938 431.695312 143.558594 431.695312 Z M 143.558594 431.695312 " style=" stroke:none;fill-rule:nonzero;fill:rgb(80.392157%,31.372549%,7.843137%);fill-opacity:1;" />
<path d="M 205.855469 392.148438 L 72.777344 392.148438 C 68.140625 392.148438 64.386719 388.394531 64.386719 383.757812 L 64.386719 365.753906 C 64.386719 361.121094 68.140625 357.363281 72.777344 357.363281 L 205.855469 357.363281 C 210.488281 357.363281 214.246094 361.121094 214.246094 365.753906 L 214.246094 383.757812 C 214.246094 388.394531 210.488281 392.148438 205.855469 392.148438 Z M 205.855469 392.148438 " style=" stroke:none;fill-rule:nonzero;fill:rgb(42.352941%,60.784314%,66.666667%);fill-opacity:1;" />
<path d="M 163.484375 357.324219 L 99.433594 357.324219 C 89.816406 357.324219 82.019531 349.527344 82.019531 339.910156 L 82.019531 281.421875 C 82.019531 271.804688 89.816406 264.007812 99.433594 264.007812 L 163.484375 264.007812 C 173.101562 264.007812 180.898438 271.804688 180.898438 281.421875 L 180.898438 339.910156 C 180.898438 349.527344 173.101562 357.324219 163.484375 357.324219 Z M 163.484375 357.324219 " style=" stroke:none;fill-rule:nonzero;fill:rgb(22.352941%,68.235294%,58.823529%);fill-opacity:1;" />
<path d="M 405.164062 512 C 418.644531 512 429.570312 501.074219 429.570312 487.597656 L 429.570312 292.53125 C 429.570312 279.054688 418.644531 268.128906 405.164062 268.128906 C 391.6875 268.128906 380.761719 279.054688 380.761719 292.53125 L 380.761719 487.597656 C 380.761719 501.074219 391.6875 512 405.164062 512 Z M 405.164062 512 " style=" stroke:none;fill-rule:nonzero;fill:rgb(20.392157%,24.313725%,41.960784%);fill-opacity:1;" />
<path d="M 346.253906 512 C 359.730469 512 370.65625 501.074219 370.65625 487.597656 L 370.65625 292.53125 C 370.65625 279.054688 359.730469 268.128906 346.253906 268.128906 C 332.777344 268.128906 321.851562 279.054688 321.851562 292.53125 L 321.851562 487.597656 C 321.851562 501.074219 332.777344 512 346.253906 512 Z M 346.253906 512 " style=" stroke:none;fill-rule:nonzero;fill:rgb(25.490196%,29.411765%,50.980392%);fill-opacity:1;" />
<path d="M 272.242188 145.105469 C 272.375 118.703125 294.300781 97.222656 321.117188 97.222656 L 429.570312 97.222656 C 429.570312 228.027344 429.570312 291.300781 429.570312 291.945312 C 429.570312 291.945312 429.570312 291.953125 429.570312 291.984375 L 429.570312 292.53125 L 321.851562 292.53125 L 321.851562 137.894531 L 321.117188 137.894531 C 316.855469 137.894531 312.957031 141.40625 312.914062 145.273438 L 312.914062 294.613281 C 312.914062 305.847656 303.808594 314.949219 292.578125 314.949219 C 281.347656 314.949219 272.242188 305.847656 272.242188 294.613281 L 272.242188 145.207031 C 272.242188 145.175781 272.242188 145.140625 272.242188 145.105469 Z M 272.242188 145.105469 " style=" stroke:none;fill-rule:nonzero;fill:rgb(14.509804%,17.647059%,36.078431%);fill-opacity:1;" />
<path d="M 375.71875 292.53125 L 429.570312 292.53125 C 429.570312 236.652344 429.570312 175.929688 429.570312 137.796875 L 429.578125 97.222656 L 375.71875 97.222656 Z M 375.71875 292.53125 " style=" stroke:none;fill-rule:nonzero;fill:rgb(10.588235%,13.333333%,29.019608%);fill-opacity:1;" />
<path d="M 344.675781 97.222656 L 375.71875 178.652344 L 406.742188 97.222656 Z M 344.675781 97.222656 " style=" stroke:none;fill-rule:nonzero;fill:rgb(100%,100%,100%);fill-opacity:1;" />
<path d="M 362.242188 124.941406 L 369.136719 112.402344 L 363.195312 101.597656 C 362.113281 99.632812 363.535156 97.21875 365.78125 97.21875 L 385.699219 97.21875 C 387.941406 97.21875 389.371094 99.628906 388.289062 101.597656 L 382.328125 112.441406 L 389.203125 124.941406 C 390.15625 126.675781 390.464844 128.6875 390.078125 130.621094 L 385.835938 152.148438 L 375.71875 178.652344 L 365.632812 152.144531 L 361.367188 130.625 C 360.980469 128.6875 361.289062 126.675781 362.242188 124.941406 Z M 362.242188 124.941406 " style=" stroke:none;fill-rule:nonzero;fill:rgb(87.843137%,19.607843%,11.372549%);fill-opacity:1;" />
<path d="M 362.242188 124.941406 L 369.136719 112.402344 L 363.195312 101.597656 C 362.113281 99.632812 363.535156 97.21875 365.78125 97.21875 L 375.71875 97.21875 L 375.71875 178.652344 L 365.632812 152.144531 L 361.367188 130.625 C 360.980469 128.6875 361.289062 126.675781 362.242188 124.941406 Z M 362.242188 124.941406 " style=" stroke:none;fill-rule:nonzero;fill:rgb(98.039216%,31.372549%,23.529412%);fill-opacity:1;" />
<path d="M 418.035156 41.933594 C 418.035156 65.09375 399.261719 83.867188 376.101562 83.867188 C 352.941406 83.867188 334.167969 65.09375 334.167969 41.933594 C 334.167969 18.773438 352.941406 0 376.101562 0 C 399.261719 0 418.035156 18.773438 418.035156 41.933594 Z M 418.035156 41.933594 " style=" stroke:none;fill-rule:nonzero;fill:rgb(100%,71.372549%,61.960784%);fill-opacity:1;" />
<path d="M 272.234375 284.125 L 272.234375 294.613281 C 272.234375 305.847656 281.339844 314.953125 292.570312 314.953125 C 303.804688 314.953125 312.910156 305.847656 312.910156 294.613281 L 312.910156 284.125 Z M 272.234375 284.125 " style=" stroke:none;fill-rule:nonzero;fill:rgb(100%,100%,100%);fill-opacity:1;" />
<path d="M 272.234375 294.089844 L 272.234375 294.613281 C 272.234375 305.847656 281.339844 314.949219 292.570312 314.949219 C 303.804688 314.949219 312.910156 305.847656 312.910156 294.613281 L 312.910156 294.089844 Z M 272.234375 294.089844 " style=" stroke:none;fill-rule:nonzero;fill:rgb(100%,71.372549%,61.960784%);fill-opacity:1;" />
<path d="M 429.570312 254.574219 L 395.433594 254.574219 L 395.433594 237.558594 L 429.570312 237.558594 C 429.570312 243.949219 429.570312 249.589844 429.570312 254.574219 Z M 429.570312 254.574219 " style=" stroke:none;fill-rule:nonzero;fill:rgb(7.843137%,10.196078%,23.137255%);fill-opacity:1;" />
<path d="M 321.851562 237.558594 L 356.863281 237.558594 L 356.863281 254.574219 L 321.851562 254.574219 Z M 321.851562 237.558594 " style=" stroke:none;fill-rule:nonzero;fill:rgb(10.588235%,13.333333%,29.019608%);fill-opacity:1;" />
<path d="M 500.722656 201.6875 L 475.519531 129.84375 C 468.671875 110.328125 450.179688 97.222656 429.503906 97.222656 L 416.015625 97.222656 L 416.015625 137.527344 L 429.503906 137.527344 C 433.089844 137.527344 436.296875 139.800781 437.484375 143.1875 L 460.515625 208.828125 L 436.914062 287.003906 C 433.695312 297.660156 439.726562 308.90625 450.382812 312.121094 C 461.035156 315.335938 472.28125 309.3125 475.5 298.652344 L 501 214.183594 C 502.234375 210.09375 502.136719 205.71875 500.722656 201.6875 Z M 500.722656 201.6875 " style=" stroke:none;fill-rule:nonzero;fill:rgb(10.588235%,13.333333%,29.019608%);fill-opacity:1;" />
<path d="M 416.914062 476.773438 C 412.300781 476.773438 408.5625 480.515625 408.5625 485.128906 L 408.5625 503.507812 C 408.5625 508.121094 412.300781 511.863281 416.914062 511.863281 C 421.53125 511.863281 425.269531 508.121094 425.269531 503.507812 L 425.269531 485.128906 C 425.269531 480.515625 421.53125 476.773438 416.914062 476.773438 Z M 416.914062 476.773438 " style=" stroke:none;fill-rule:nonzero;fill:rgb(98.039216%,41.176471%,5.882353%);fill-opacity:1;" />
<path d="M 491.269531 476.773438 C 486.652344 476.773438 482.914062 480.515625 482.914062 485.128906 L 482.914062 503.507812 C 482.914062 508.121094 486.652344 511.863281 491.269531 511.863281 C 495.882812 511.863281 499.621094 508.121094 499.621094 503.507812 L 499.621094 485.128906 C 499.621094 480.515625 495.882812 476.773438 491.269531 476.773438 Z M 491.269531 476.773438 " style=" stroke:none;fill-rule:nonzero;fill:rgb(98.039216%,41.176471%,5.882353%);fill-opacity:1;" />
<path d="M 486.394531 422.09375 L 421.789062 422.09375 L 421.789062 304.027344 C 421.789062 292.660156 431.039062 283.414062 442.40625 283.414062 L 465.78125 283.414062 C 477.148438 283.414062 486.394531 292.660156 486.394531 304.027344 Z M 438.496094 405.386719 L 469.6875 405.386719 L 469.6875 304.027344 C 469.6875 301.875 467.933594 300.121094 465.777344 300.121094 L 442.40625 300.121094 C 440.25 300.121094 438.496094 301.875 438.496094 304.027344 Z M 438.496094 405.386719 " style=" stroke:none;fill-rule:nonzero;fill:rgb(98.039216%,41.176471%,5.882353%);fill-opacity:1;" />
<path d="M 496.132812 492.792969 L 412.050781 492.792969 C 405.28125 492.792969 399.789062 487.304688 399.789062 480.53125 L 399.789062 363.066406 C 399.789062 356.292969 405.28125 350.804688 412.050781 350.804688 L 496.132812 350.804688 C 502.90625 350.804688 508.394531 356.292969 508.394531 363.066406 L 508.394531 480.53125 C 508.394531 487.304688 502.90625 492.792969 496.132812 492.792969 Z M 496.132812 492.792969 " style=" stroke:none;fill-rule:nonzero;fill:rgb(98.039216%,52.941176%,3.921569%);fill-opacity:1;" />
<path d="M 480.558594 406.21875 L 427.625 406.21875 C 423.472656 406.21875 420.105469 402.855469 420.105469 398.699219 C 420.105469 394.546875 423.472656 391.183594 427.625 391.183594 L 480.558594 391.183594 C 484.710938 391.183594 488.078125 394.546875 488.078125 398.699219 C 488.078125 402.855469 484.714844 406.21875 480.558594 406.21875 Z M 480.558594 406.21875 " style=" stroke:none;fill-rule:nonzero;fill:rgb(100%,90.196078%,35.294118%);fill-opacity:1;" />
<path d="M 440.71875 274.394531 L 436.914062 287.003906 C 433.695312 297.660156 439.726562 308.902344 450.382812 312.121094 C 461.035156 315.335938 472.28125 309.308594 475.5 298.652344 L 479.621094 284.992188 Z M 440.71875 274.394531 " style=" stroke:none;fill-rule:nonzero;fill:rgb(10.588235%,13.333333%,29.019608%);fill-opacity:1;" />
<path d="M 439.617188 278.039062 L 436.914062 287.003906 C 433.695312 297.660156 439.726562 308.902344 450.382812 312.121094 C 461.035156 315.335938 472.28125 309.308594 475.5 298.652344 C 475.554688 298.472656 478.238281 289.574219 478.238281 289.574219 Z M 439.617188 278.039062 " style=" stroke:none;fill-rule:nonzero;fill:rgb(100%,100%,100%);fill-opacity:1;" />
<path d="M 436.914062 287.003906 C 433.695312 297.660156 439.726562 308.902344 450.382812 312.121094 C 461.035156 315.335938 472.28125 309.308594 475.5 298.652344 Z M 436.914062 287.003906 " style=" stroke:none;fill-rule:nonzero;fill:rgb(100%,71.372549%,61.960784%);fill-opacity:1;" />
</g>
</svg>